<?xml version="1.0" encoding="UTF-8"?><svg id="a" xmlns="http://www.w3.org/2000/svg" viewBox="0 0 1023.9988 136.7884">
<title>Windsurf-logo</title><path d="M229.8108.0362h-2.21c-11.633-.0181-21.072,9.4037-21.072,21.036v47.0457c0,9.3947-7.764,17.0047-17.005,17.0047-5.49,0-10.971-2.7632-14.223-7.4016L127.2488,9.0957c-3.986-5.6984-10.472-9.0957-17.494-9.0957-10.9524,0-20.8091,9.3131-20.8091,20.8096v47.3175c0,9.3947-7.7006,17.0046-17.0046,17.0046-5.5082,0-10.9801-2.7631-14.2324-7.4016L3.9409.9422C2.7269-.7882,0,.0634,0,2.1833v41.0303c0,2.0746.6342,4.0859,1.821,5.789l52.9072,75.5648c3.1256,4.466,7.7368,7.782,13.0547,8.987,13.3083,3.026,25.5567-7.22,25.5567-20.275v-47.2903c0-9.3947,7.6103-17.0046,17.0043-17.0046h.027c5.663,0,10.972,2.7631,14.224,7.4015l48.051,68.6164c3.995,5.707,10.147,9.096,17.485,9.096,11.197,0,20.791-9.323,20.791-20.81v-47.3084c0-9.3946,7.61-17.0046,17.005-17.0046h1.875c1.178,0,2.129-.9512,2.129-2.1289V2.1562c0-1.1777-.951-2.129-2.129-2.129l.009.0091ZM505.6618,35.4406h-11.759c-1.196,0-2.166.9694-2.166,2.1652v94.3086c0,1.196.97,2.166,2.166,2.166h11.759c1.196,0,2.165-.97,2.165-2.166V37.6058c0-1.1958-.969-2.1652-2.165-2.1652ZM493.5128.0091h12.53c1.195,0,2.165.9694,2.165,2.1652v15.4011c0,1.1958-.97,2.1652-2.165,2.1652h-12.53c-1.196,0-2.165-.9694-2.165-2.1652V2.1743c0-1.1959.969-2.1652,2.165-2.1652ZM576.0458,32.759c-13.217,0-22.793,4.5932-28.926,11.3062-1.9659,1.9931-5.364.5979-5.364-2.2014v-4.258c0-1.1958-.969-2.1652-2.165-2.1652h-11.56c-1.196,0-2.165.9694-2.165,2.1652v94.3086c0,1.196.969,2.166,2.165,2.166h11.569c1.196,0,2.165-.97,2.165-2.166v-59.7015c0-20.6918,4.023-25.2849,26.055-25.2849s25.666,3.6419,25.666,24.3246v60.6528c0,1.196.969,2.165,2.165,2.165h11.759c1.196,0,2.165-.969,2.165-2.165v-65.0647c0-23.5636-13.407-34.0998-33.52-34.0998v.0181h-.009ZM696.1749,45.406c1.966,1.9931,5.363.5979,5.363-2.2015V2.1833c0-1.1958.97-2.1652,2.165-2.1652h11.569c1.196,0,2.166.9693,2.166,2.1652v129.7401c0,1.196-.97,2.166-2.166,2.166h-11.569c-1.195,0-2.165-.97-2.165-2.166v-5.598c.118-2.863-3.352-4.24-5.363-2.202-5.553,6.894-16.28,12.638-30.648,12.638-25.276,0-41.755-18.001-41.755-51.521,0-35.4315,18.381-52.4814,42.326-52.4814,14.368,0,24.714,5.7527,30.077,12.647ZM641.1928,84.8509c0,32.3695,4.023,37.1615,30.268,37.1615,26.0551,0,30.077-4.792,30.077-37.1615s-3.832-37.3522-30.077-37.3522-30.268,4.9828-30.268,37.3522ZM784.6768,78.7357l-18.952-3.2523c-13.988-2.4914-16.479-6.704-16.479-13.9878.19-9.9654,4.022-14.9391,22.603-14.9391,17.403,0,22.975,5.1458,24.171,16.2527.117,1.0962,1.042,1.9388,2.147,1.9388h11.496c1.232,0,2.238-1.0328,2.165-2.274-1.114-19.0701-18.571-29.724-39.399-29.724-23.374,0-38.883,12.4476-38.883,30.2676,0,16.2798,12.647,23.3734,27.776,26.2452l20.882,3.8322c11.496,2.1108,15.329,5.943,15.329,13.2174,0,11.687-4.023,16.67-23.754,16.67s-25.186-5.69-26.454-17.222c-.118-1.097-1.042-1.93-2.147-1.93h-11.569c-1.214,0-2.201,1.006-2.174,2.22.552,20.546,19.179,30.729,41.374,30.729,24.135,0,40.795-12.447,40.795-31.228,0-16.4698-12.647-23.9438-28.927-26.8157ZM868.4039,122.6014c21.4529,0,25.475-4.593,25.475-25.2848v-59.6836c0-1.1958.969-2.1652,2.165-2.1652h11.759c1.196,0,2.166.9694,2.166,2.1652v94.3094c0,1.195-.97,2.165-2.166,2.165h-11.759c-1.196,0-2.165-.97-2.165-2.165v-4.113c-.045-2.927-3.08-4.385-5.173-2.338-6.124,6.704-15.7,11.297-28.537,11.297-19.732,0-33.14-10.536-33.14-34.099V37.6239c0-1.1958.97-2.1652,2.165-2.1652h11.76c1.195,0,2.165.9694,2.165,2.1652v60.6531c0,20.6824,3.832,24.3244,25.285,24.3244ZM1004.0588,35.4406v-12.647c0-4.9736,4.03-9.0051,9.01-9.0051h8.75c1.19,0,2.16-.9693,2.16-2.1652V2.1652c0-1.1958-.97-2.1652-2.16-2.1652h-6.07c-17.242,0-27.778,9.5758-27.778,26.055v9.3856h-12.747c-11.297.0181-20.166,1.5673-26.082,8.6246-2.174,2.0565-5.173.5164-5.173-2.4732v-3.9771c0-1.1959-.969-2.1652-2.165-2.1652h-11.76c-1.195,0-2.165.9693-2.165,2.1652v94.3085c0,1.196.97,2.166,2.165,2.166h11.76c1.196,0,2.165-.97,2.165-2.166v-59.1216c0-19.5413,4.983-24.1344,26.4351-24.1344h17.567v83.265c0,1.196.969,2.166,2.165,2.166h11.763c1.19,0,2.16-.97,2.16-2.166V48.6674h17.78c1.19,0,2.16-.9693,2.16-2.1652v-8.8783c0-1.1958-.97-2.1652-2.16-2.1652h-17.78v-.0181ZM426.2658,109.4834c.416,1.731,1.965,2.954,3.741,2.954h.009c1.767,0,3.307-1.205,3.733-2.918L460.7188,1.6488c.244-.9694,1.114-1.6488,2.111-1.6488h13.462c1.44,0,2.491,1.3589,2.129,2.7541l-33.928,129.7583c-.244.915-1.069,1.558-2.02,1.558h-24.017c-.969,0-1.812-.661-2.056-1.594l-28.184-108.5413c-.435-1.6941-1.966-2.8809-3.724-2.8809h-.244c-1.749,0-3.28,1.1868-3.724,2.8809l-28.174,108.5413c-.245.942-1.088,1.594-2.057,1.594h-24.017c-.951,0-1.784-.643-2.02-1.558L290.3288,2.7541c-.363-1.3951.688-2.7541,2.128-2.7541h13.463c.996,0,1.866.6795,2.111,1.6488l26.961,107.8705c.425,1.713,1.956,2.918,3.732,2.918s3.325-1.223,3.742-2.954L368.3848,1.667c.235-.9784,1.105-1.667,2.111-1.667h27.749c1.005,0,1.875.6885,2.111,1.667l25.91,107.8164Z" style="fill:#0b100f; fill-rule:evenodd;"/></svg>